<svg version="1" xmlns="http://www.w3.org/2000/svg" width="933.333" height="933.333" viewBox="0 0 700.000000 700.000000"><path d="M34.5 35.2c-.3.7-.4 142.8-.3 315.8l.3 314.5h631v-631l-315.3-.3c-251.7-.2-315.4 0-315.7 1zm293.3 310L328 465h-48V268h-32v-20.8c0-11.5.3-21.2.7-21.5.4-.4 18.2-.6 39.7-.5l39.1.3.3 119.7zm89.2-64.7c6.1 2.1 11.2 6.6 14.5 12.7 2.5 4.5 2.9 6.4 2.9 12.3-.1 8.2-1.7 12.6-6.9 18.3-5.6 6.3-11.4 8.7-21 8.7-6.8 0-8.9-.4-13.7-2.8-21.1-10.3-19.2-41.4 2.9-49.3 5.1-1.8 16.1-1.7 21.3.1zm19.3 136.2c.2.5-8.2 21.4-18.7 46.5L398.5 509h-14.7c-8.2 0-14.8-.4-14.8-.9s4.7-21.2 10.5-46.1c5.8-25 10.5-45.5 10.5-45.7 0-.7 45.9-.3 46.3.4z"/></svg>