<svg version="1" xmlns="http://www.w3.org/2000/svg" width="933.333" height="933.333" viewBox="0 0 700.000000 700.000000"><path d="M0 350v350h700V0H0v350zm323-7.5V504h-78l-.2-126.3-.3-126.2-21.7-.3-21.8-.2v-70h122v161.5zM441 250c12.4 2.4 25.1 11.7 30.3 22.3 10.2 21 .6 46.3-20.9 55.2-6.3 2.7-8 2.9-18.9 3-13.9 0-19.8-1.5-28.5-7.3-15.1-10.2-21-30.4-14-48.5 7-18.3 29.4-29 52-24.7zm32.7 186.7c-.2 1-10.2 27-22.2 57.8-11.9 30.8-22.6 58.4-23.7 61.2l-1.9 5.3h-24c-14.6 0-23.9-.4-23.9-1 0-.8 21.4-107.4 24.1-119.9l1.1-5.1h35.5c33.4 0 35.5.1 35 1.7z"/></svg>