<svg width="200" height="200" viewBox="0 0 200 200" fill="none" xmlns="http://www.w3.org/2000/svg">
<g clip-path="url(#clip0)">
<path d="M126.687 73.3043C126.399 73.0199 125.973 72.925 125.592 73.0615L81.7852 88.6811C80.2633 87.7504 78.3329 87.5325 76.5624 88.2656C73.6236 89.483 72.2228 92.8645 73.4401 95.8036C76.3109 102.734 80.4557 108.937 85.7598 114.241C91.0639 119.545 97.2672 123.69 104.197 126.561C104.917 126.859 105.663 127 106.398 127C108.663 127 110.816 125.658 111.735 123.438C112.354 121.945 112.295 120.338 111.704 118.958L126.944 74.3962C127.075 74.0131 126.975 73.5887 126.687 73.3043ZM88.4182 88.5555L93.0609 86.9002C93.6059 87.4809 93.8716 88.2804 93.7652 89.0889C93.6713 89.8008 93.306 90.4337 92.7363 90.8709C92.1667 91.3081 91.4613 91.497 90.7489 91.4034C90.0371 91.3097 89.4043 90.9444 88.9671 90.3747C88.5643 89.8498 88.3727 89.2094 88.4182 88.5555ZM109.786 122.631C109.014 124.496 106.869 125.384 105.005 124.612C91.5005 119.018 80.9828 108.5 75.3891 94.9962C75.015 94.0931 75.015 93.0984 75.3891 92.1952C75.7632 91.292 76.4666 90.5887 77.3697 90.2146C78.2728 89.8405 79.2676 89.8405 80.1707 90.2146C81.0738 90.5887 81.7772 91.292 82.1513 92.1952C84.5456 97.9756 88.0028 103.15 92.427 107.574C96.8512 111.998 102.025 115.455 107.806 117.85C109.67 118.622 110.559 120.767 109.786 122.631ZM119.157 90.6479C119.061 90.6456 118.966 90.6401 118.87 90.6277C118.158 90.5339 117.526 90.1686 117.089 89.599C116.651 89.0293 116.462 88.3234 116.556 87.6116C116.749 86.142 118.102 85.104 119.572 85.2972C120.026 85.3569 120.451 85.5328 120.815 85.8004L119.157 90.6479ZM121.516 83.7497C121.002 83.4699 120.437 83.2835 119.847 83.2059C117.224 82.8596 114.81 84.7134 114.465 87.3363C114.297 88.6068 114.635 89.8664 115.415 90.8831C116.166 91.8624 117.242 92.5022 118.456 92.6973L116.359 98.827L113.949 96.9771C113.487 96.6227 112.824 96.7096 112.47 97.1718C112.115 97.634 112.202 98.296 112.665 98.6506L115.639 100.933L110.187 116.875C109.73 116.478 109.203 116.145 108.613 115.901C97.4358 111.271 88.7304 102.565 84.1007 91.3879C83.9397 90.9992 83.7398 90.6382 83.5091 90.3058L86.3335 89.2988C86.4321 90.1497 86.7587 90.9614 87.2938 91.6587C88.0738 92.6754 89.2033 93.3274 90.4737 93.4945C90.6866 93.5226 90.8988 93.5365 91.1099 93.5365C92.1591 93.5365 93.1742 93.1937 94.0205 92.5444C95.0374 91.7641 95.6893 90.6349 95.8566 89.3642C96.0067 88.2235 95.7405 87.0938 95.1428 86.1578L108.253 81.4833L108.75 82.6829C108.918 83.089 109.311 83.3342 109.725 83.3342C109.859 83.3342 109.996 83.3083 110.128 83.2537C110.666 83.0308 110.922 82.4137 110.699 81.8756L110.243 80.774L124.24 75.783L121.516 83.7497Z" fill="#FAFAFA" fill-opacity="0.5"/>
<path d="M84.3906 101.295C84.3874 101.29 84.3787 101.276 84.3753 101.272C84.0524 100.787 83.3988 100.657 82.9142 100.98C82.4304 101.302 82.2992 101.956 82.6194 102.44C82.8213 102.75 83.1593 102.92 83.5045 102.92C83.6998 102.92 83.8973 102.866 84.0737 102.752C84.5637 102.437 84.7055 101.785 84.3906 101.295Z" fill="#FAFAFA" fill-opacity="0.5"/>
<path d="M82.7865 98.6745C81.7587 96.8724 80.8348 94.9864 80.0405 93.0691C79.8176 92.5308 79.2003 92.2756 78.6625 92.4984C78.1243 92.7213 77.8689 93.3383 78.0918 93.8764C78.9198 95.8751 79.8829 97.841 80.9543 99.7194C81.1488 100.061 81.5049 100.252 81.8713 100.252C82.0485 100.252 82.2281 100.207 82.3928 100.113C82.8988 99.8245 83.0751 99.1804 82.7865 98.6745Z" fill="#FAFAFA" fill-opacity="0.5"/>
<path d="M106.004 86.4986C105.795 86.471 105.583 86.457 105.373 86.457C102.977 86.457 100.935 88.2505 100.621 90.6288C100.276 93.2516 102.129 95.6664 104.752 96.0117C104.961 96.0394 105.173 96.0533 105.383 96.0533C107.779 96.0533 109.821 94.2598 110.135 91.8813C110.48 89.2586 108.627 86.8439 106.004 86.4986ZM108.043 91.606C107.868 92.9388 106.724 93.9438 105.383 93.9438C105.265 93.9438 105.145 93.936 105.027 93.9204C103.557 93.7269 102.519 92.3738 102.713 90.9041C102.888 89.5714 104.032 88.5665 105.373 88.5665C105.491 88.5665 105.611 88.5743 105.729 88.5899C107.199 88.7836 108.237 90.1365 108.043 91.606Z" fill="#FAFAFA" fill-opacity="0.5"/>
<path d="M105.73 99.6175C105.521 99.5898 105.309 99.5759 105.099 99.5759C102.703 99.5759 100.66 101.369 100.347 103.748C100.18 105.018 100.517 106.278 101.297 107.295C102.077 108.311 103.207 108.963 104.477 109.131C104.686 109.158 104.898 109.172 105.108 109.172C107.504 109.172 109.547 107.379 109.86 105C110.206 102.378 108.353 99.963 105.73 99.6175ZM107.769 104.725C107.594 106.058 106.45 107.063 105.108 107.063C104.99 107.063 104.871 107.055 104.753 107.039C104.041 106.946 103.408 106.58 102.971 106.011C102.534 105.441 102.345 104.735 102.438 104.023C102.614 102.69 103.758 101.685 105.099 101.685C105.217 101.685 105.337 101.693 105.455 101.709C106.924 101.902 107.962 103.255 107.769 104.725Z" fill="#FAFAFA" fill-opacity="0.5"/>
<path d="M98.7741 95.2481L95.5324 94.8213C94.9551 94.7446 94.4251 95.1517 94.349 95.7292C94.2729 96.3067 94.6794 96.8365 95.2569 96.9125L98.4986 97.3393C98.5453 97.3456 98.5917 97.3485 98.6376 97.3485C99.1587 97.3485 99.612 96.9622 99.6818 96.4315C99.7581 95.854 99.3516 95.3242 98.7741 95.2481Z" fill="#FAFAFA" fill-opacity="0.5"/>
<path d="M97.1303 103.031L96.844 100.856C96.768 100.279 96.2383 99.872 95.6608 99.9483C95.0832 100.024 94.6768 100.554 94.7528 101.132L95.0391 103.307C95.109 103.838 95.5622 104.224 96.0834 104.224C96.1293 104.224 96.1757 104.221 96.2223 104.215C96.7998 104.139 97.2063 103.609 97.1303 103.031Z" fill="#FAFAFA" fill-opacity="0.5"/>
</g>
<defs>
<clipPath id="clip0">
<rect x="73" y="73" width="54" height="54" fill="white"/>
</clipPath>
</defs>
</svg>
