<svg width="150" height="150" viewBox="0 0 150 150" fill="none" xmlns="http://www.w3.org/2000/svg">
<g clip-path="url(#clip0)">
<path d="M101.687 48.3043C101.399 48.0199 100.973 47.925 100.592 48.0615L56.7852 63.6811C55.2633 62.7504 53.3329 62.5325 51.5624 63.2656C48.6236 64.483 47.2228 67.8645 48.4401 70.8036C51.3109 77.7337 55.4557 83.937 60.7598 89.2412C66.0639 94.5453 72.2672 98.6902 79.1974 101.561C79.9171 101.859 80.6631 102 81.3976 102C83.6625 102 85.8161 100.658 86.7352 98.4384C87.3537 96.9452 87.2953 95.3381 86.7037 93.9581L101.944 49.3962C102.075 49.0131 101.975 48.5887 101.687 48.3043ZM63.4182 63.5555L68.0609 61.9002C68.6059 62.4809 68.8716 63.2804 68.7652 64.0889C68.6713 64.8008 68.306 65.4337 67.7363 65.8709C67.1667 66.3081 66.4613 66.497 65.7489 66.4034C65.0371 66.3097 64.4043 65.9444 63.9671 65.3747C63.5643 64.8498 63.3727 64.2094 63.4182 63.5555ZM84.7864 97.6311C84.0142 99.4955 81.8687 100.384 80.0047 99.6117C66.5005 94.0181 55.9828 83.5004 50.3891 69.9962C50.015 69.0931 50.015 68.0984 50.3891 67.1952C50.7632 66.292 51.4666 65.5887 52.3697 65.2146C53.2728 64.8405 54.2676 64.8405 55.1707 65.2146C56.0738 65.5887 56.7772 66.292 57.1513 67.1952C59.5456 72.9756 63.0028 78.1497 67.427 82.5739C71.8512 86.9981 77.0253 90.4552 82.8057 92.8496C84.6702 93.6217 85.5587 95.7668 84.7864 97.6311ZM94.1565 65.6479C94.0611 65.6456 93.9655 65.6401 93.8702 65.6277C93.1584 65.5339 92.5256 65.1686 92.0885 64.599C91.6513 64.0293 91.4622 63.3234 91.5559 62.6116C91.7494 61.142 93.1021 60.104 94.5722 60.2972C95.0257 60.3569 95.4515 60.5328 95.8146 60.8004L94.1565 65.6479ZM96.5157 58.7497C96.0018 58.4699 95.4372 58.2835 94.8475 58.2059C92.2244 57.8596 89.8099 59.7134 89.4646 62.3363C89.2973 63.6068 89.6348 64.8664 90.4149 65.8831C91.1664 66.8624 92.2422 67.5022 93.4557 67.6973L91.3594 73.827L88.9486 71.9771C88.4865 71.6227 87.8243 71.7096 87.4698 72.1718C87.1152 72.634 87.2025 73.296 87.6645 73.6506L90.6393 75.9331L85.1872 91.8752C84.7299 91.4776 84.2033 91.145 83.6134 90.9006C72.4358 86.2706 63.7304 77.5653 59.1007 66.3879C58.9397 65.9992 58.7398 65.6382 58.5091 65.3058L61.3335 64.2988C61.4321 65.1497 61.7587 65.9614 62.2938 66.6587C63.0738 67.6754 64.2033 68.3274 65.4737 68.4945C65.6866 68.5226 65.8988 68.5365 66.1099 68.5365C67.1591 68.5365 68.1742 68.1937 69.0205 67.5444C70.0374 66.7641 70.6893 65.6349 70.8566 64.3642C71.0067 63.2235 70.7405 62.0938 70.1428 61.1578L83.2533 56.4833L83.7502 57.6829C83.9185 58.089 84.3112 58.3342 84.725 58.3342C84.8595 58.3342 84.9962 58.3083 85.1282 58.2537C85.6663 58.0308 85.9219 57.4137 85.699 56.8756L85.2428 55.774L99.2404 50.783L96.5157 58.7497Z" fill="#FAFAFA" fill-opacity="0.5"/>
<path d="M59.3906 76.2947C59.3874 76.2898 59.3787 76.2764 59.3753 76.2715C59.0524 75.7871 58.3988 75.657 57.9142 75.9797C57.4304 76.3018 57.2992 76.9556 57.6194 77.4402C57.8213 77.7505 58.1593 77.9198 58.5045 77.9198C58.6998 77.9198 58.8973 77.8656 59.0737 77.7522C59.5637 77.4371 59.7055 76.7846 59.3906 76.2947Z" fill="#FAFAFA" fill-opacity="0.5"/>
<path d="M57.7865 73.6745C56.7587 71.8724 55.8348 69.9864 55.0405 68.0691C54.8176 67.5308 54.2003 67.2756 53.6625 67.4984C53.1243 67.7213 52.8689 68.3383 53.0918 68.8764C53.9198 70.8751 54.8829 72.841 55.9543 74.7194C56.1488 75.0605 56.5049 75.2518 56.8713 75.2518C57.0485 75.2518 57.2281 75.2071 57.3928 75.1131C57.8988 74.8245 58.0751 74.1804 57.7865 73.6745Z" fill="#FAFAFA" fill-opacity="0.5"/>
<path d="M81.0044 61.4986C80.7953 61.471 80.583 61.457 80.3734 61.457C77.9774 61.457 75.9345 63.2505 75.6215 65.6288C75.2762 68.2516 77.1289 70.6664 79.7517 71.0117C79.9608 71.0394 80.1731 71.0533 80.3828 71.0533C82.7786 71.0533 84.8215 69.2598 85.1346 66.8813C85.4798 64.2586 83.6271 61.8439 81.0044 61.4986ZM83.0434 66.606C82.8679 67.9388 81.7241 68.9438 80.3828 68.9438C80.2648 68.9438 80.1451 68.936 80.0271 68.9204C78.5574 68.7269 77.5194 67.3738 77.7128 65.9041C77.8883 64.5714 79.032 63.5665 80.3734 63.5665C80.4913 63.5665 80.611 63.5743 80.729 63.5899C82.1986 63.7836 83.2368 65.1365 83.0434 66.606Z" fill="#FAFAFA" fill-opacity="0.5"/>
<path d="M80.73 74.6175C80.5208 74.5898 80.3086 74.5759 80.099 74.5759C77.703 74.5759 75.6601 76.3694 75.3471 78.7478C75.1797 80.0184 75.5172 81.2779 76.2974 82.2948C77.0774 83.3115 78.2068 83.9635 79.4773 84.1309C79.6863 84.1584 79.8985 84.1722 80.108 84.1722C82.504 84.1722 84.547 82.3787 84.8601 80.0002C85.2055 77.3776 83.3527 74.963 80.73 74.6175ZM82.769 79.725C82.5935 81.0578 81.4496 82.0628 80.1082 82.0628C79.9904 82.0628 79.8707 82.0549 79.7528 82.0394C79.0409 81.9455 78.4081 81.5802 77.9709 81.0106C77.5338 80.4409 77.3447 79.7351 77.4384 79.0231C77.6139 77.6904 78.7577 76.6854 80.099 76.6854C80.2169 76.6854 80.3366 76.6932 80.4546 76.7088C81.9241 76.9024 82.9623 78.2554 82.769 79.725Z" fill="#FAFAFA" fill-opacity="0.5"/>
<path d="M73.7741 70.2481L70.5324 69.8213C69.9551 69.7446 69.4251 70.1517 69.349 70.7292C69.2729 71.3067 69.6794 71.8365 70.2569 71.9125L73.4986 72.3393C73.5453 72.3456 73.5917 72.3485 73.6376 72.3485C74.1587 72.3485 74.612 71.9622 74.6818 71.4315C74.7581 70.854 74.3516 70.3242 73.7741 70.2481Z" fill="#FAFAFA" fill-opacity="0.5"/>
<path d="M72.1303 78.0314L71.844 75.8563C71.768 75.2787 71.2383 74.872 70.6608 74.9483C70.0832 75.0243 69.6768 75.554 69.7528 76.1315L70.0391 78.3067C70.109 78.8375 70.5622 79.2239 71.0834 79.2239C71.1293 79.2239 71.1757 79.2209 71.2223 79.2147C71.7998 79.1386 72.2063 78.609 72.1303 78.0314Z" fill="#FAFAFA" fill-opacity="0.5"/>
</g>
<defs>
<clipPath id="clip0">
<rect x="48" y="48" width="54" height="54" fill="white"/>
</clipPath>
</defs>
</svg>
